<svg width="29" height="29" viewBox="0 0 29 29" fill="none" xmlns="http://www.w3.org/2000/svg">
<path d="M2 14.5L4.83333 11.6667M4.83333 11.6667L14.75 1.75L24.6667 11.6667M4.83333 11.6667V25.8333C4.83333 26.6157 5.4676 27.25 6.25 27.25H10.5M24.6667 11.6667L27.5 14.5M24.6667 11.6667V25.8333C24.6667 26.6157 24.0324 27.25 23.25 27.25H19M10.5 27.25C11.2824 27.25 11.9167 26.6157 11.9167 25.8333V20.1667C11.9167 19.3843 12.5509 18.75 13.3333 18.75H16.1667C16.9491 18.75 17.5833 19.3843 17.5833 20.1667V25.8333C17.5833 26.6157 18.2176 27.25 19 27.25M10.5 27.25H19" stroke="#004784" stroke-width="3" stroke-linecap="round" stroke-linejoin="round"/>
</svg>
